<svg width="141" height="29" viewBox="0 0 141 29" fill="none" xmlns="http://www.w3.org/2000/svg">
<g id="Logo ujueta" clip-path="url(#clip0_3604_7235)">
<path id="Vector" fill-rule="evenodd" clip-rule="evenodd" d="M32.2012 4.0332L36.4105 6.80024V18.7898H44.8158V6.52282H49.0711V18.7898L46.0367 22.3618H35.2237L32.2012 18.7898V4.0332Z" fill="white"/>
<path id="Vector_2" fill-rule="evenodd" clip-rule="evenodd" d="M50.6113 18.6681H60.1486V6.74761L64.315 4.0625V18.6681L61.1754 22.3623H54.0058L50.6113 18.6681Z" fill="white"/>
<path id="Vector_3" fill-rule="evenodd" clip-rule="evenodd" d="M87.3145 6.5625H91.5401H104.107L100.848 10.2768H91.5401V12.9317H101.981L99.2061 16.0581H91.5401V18.772H103.432L100.366 22.367H91.5401H87.3145V6.5625Z" fill="white"/>
<path id="Vector_4" fill-rule="evenodd" clip-rule="evenodd" d="M105.363 6.5625H124.136L121.103 10.1029H116.772V24.3391H115.713L112.484 22.17V10.1029H108.38L105.363 6.5625Z" fill="white"/>
<path id="Vector_5" fill-rule="evenodd" clip-rule="evenodd" d="M123.773 22.3761H127.939V17.818H136.691V22.4494L139.435 24.2146H140.675V10.1594L137.657 6.56445H127.938L126.996 6.56733L123.771 10.02V22.3775L123.773 22.3761ZM127.939 9.90359H136.691V14.4703H127.939V9.90359Z" fill="white"/>
<path id="Vector_6" fill-rule="evenodd" clip-rule="evenodd" d="M12.465 4.10097C14.6519 1.35261 17.7233 0.132243 22.2438 1.4058C20.1399 2.53705 19.1768 3.57343 19.408 4.50919C23.4276 3.61081 26.5332 5.13447 28.9453 8.49086C27.1688 8.16744 25.5612 8.19762 24.5092 9.39931C27.834 11.061 29.8668 13.5506 29.369 18.2423C28.2622 16.6339 26.9628 15.9554 25.4753 16.1624C26.8176 19.858 26.059 23.1123 22.8943 25.8707C23.0809 24.3313 22.7579 22.9197 21.4156 21.7712C20.2021 26.2531 17.2818 27.7653 13.7348 28.185C14.8771 26.7332 15.2223 25.3648 14.8356 24.0711C10.7478 26.5664 7.62006 25.7097 4.73976 23.982C6.49698 23.7505 7.72081 22.8277 8.512 21.3472C3.09662 21.5067 1.76759 18.2409 0 15.3445C1.77796 16.1609 3.50259 16.2759 5.16054 15.4911C1.98243 13.266 1.37792 10.026 3.34998 5.76981C4.02709 7.16555 5.04794 8.06394 6.36808 8.52248C6.48364 3.70711 7.99491 1.5826 11.7716 0C11.1864 2.01814 11.2397 3.52744 12.4665 4.10097M15.1216 8.69784C12.1879 8.69784 9.80992 11.0049 9.80992 13.8524C9.80992 16.7 12.1879 19.0056 15.1216 19.0056C18.0552 19.0056 20.4347 16.6985 20.4347 13.8524C20.4347 11.0063 18.0567 8.69784 15.1216 8.69784Z" fill="#FF000D"/>
<path id="Vector_7" fill-rule="evenodd" clip-rule="evenodd" d="M67.127 4.0332L71.3348 6.80024V18.7898H79.7401V6.52282H83.9954V18.7898L80.964 22.3618H70.148L67.127 18.7898V4.0332Z" fill="white"/>
<path id="Vector_8" d="M32.4976 28.9517V26.1875H33.065L33.7392 28.1438C33.8014 28.3264 33.8473 28.4629 33.8755 28.5535C33.9081 28.4529 33.9585 28.3048 34.0266 28.1108L34.7082 26.1875H35.2149V28.9517H34.8519V26.6389L34.0237 28.9517H33.6829L32.8591 26.5986V28.9517H32.4961H32.4976Z" fill="white"/>
<path id="Vector_9" d="M36.209 28.9517L37.3024 26.1875H37.7084L38.8744 28.9517H38.4448L38.1129 28.1151H36.9217L36.609 28.9517H36.209ZM37.0313 27.8161H37.9973L37.6995 27.05C37.6091 26.8171 37.541 26.6259 37.498 26.4764C37.4624 26.6532 37.4106 26.83 37.3439 27.004L37.0313 27.8147V27.8161Z" fill="white"/>
<path id="Vector_10" d="M39.8789 28.9517V26.1875H41.1427C41.3961 26.1875 41.5902 26.2119 41.7221 26.2622C41.8539 26.3126 41.9591 26.4002 42.0391 26.5253C42.1191 26.6503 42.1577 26.7898 42.1577 26.9421C42.1577 27.1376 42.0925 27.3029 41.9621 27.4381C41.8317 27.5732 41.6287 27.658 41.3561 27.6939C41.4554 27.7399 41.5309 27.7859 41.5843 27.8319C41.6939 27.9297 41.7991 28.0533 41.8969 28.1999L42.3918 28.9517H41.9176L41.5413 28.3767C41.4317 28.2114 41.3398 28.0835 41.2687 27.9958C41.1976 27.9081 41.1339 27.8463 41.0776 27.8103C41.0212 27.7759 40.9635 27.75 40.9057 27.737C40.8627 27.7284 40.7931 27.7241 40.6953 27.7241H40.2582V28.9517H39.8819H39.8789ZM40.2552 27.4079H41.0657C41.2376 27.4079 41.3724 27.3906 41.4702 27.3561C41.568 27.3216 41.6406 27.267 41.6924 27.1908C41.7443 27.1146 41.768 27.0327 41.768 26.9436C41.768 26.8128 41.7191 26.705 41.6213 26.6216C41.5235 26.5382 41.3694 26.4951 41.1576 26.4951H40.2552V27.4093V27.4079Z" fill="white"/>
<path id="Vector_11" d="M45.4764 27.9834L45.8528 28.0754C45.7742 28.3758 45.632 28.6044 45.4261 28.7625C45.2201 28.9206 44.9697 28.9997 44.6734 28.9997C44.3771 28.9997 44.1163 28.9393 43.9237 28.8171C43.7311 28.6949 43.5844 28.5196 43.4851 28.2896C43.3844 28.0596 43.334 27.8123 43.334 27.5493C43.334 27.2618 43.3903 27.0103 43.5044 26.7961C43.617 26.5819 43.7785 26.4195 43.9889 26.3074C44.1978 26.1967 44.4289 26.1406 44.6793 26.1406C44.9638 26.1406 45.2038 26.2111 45.3979 26.3519C45.592 26.4928 45.7283 26.6912 45.8039 26.9456L45.4335 27.0304C45.3668 26.8292 45.272 26.6825 45.146 26.5905C45.0201 26.4985 44.8616 26.4525 44.6719 26.4525C44.4526 26.4525 44.2704 26.5029 44.1222 26.6049C43.9755 26.707 43.8718 26.8435 43.8126 27.0146C43.7533 27.1856 43.7237 27.3624 43.7237 27.545C43.7237 27.7807 43.7592 27.9848 43.8289 28.1602C43.8985 28.3356 44.0096 28.4664 44.1578 28.5541C44.3059 28.6403 44.4674 28.6834 44.6423 28.6834C44.8527 28.6834 45.0319 28.6245 45.1786 28.5066C45.3253 28.3888 45.4246 28.2134 45.4764 27.9805V27.9834Z" fill="white"/>
<path id="Vector_12" d="M46.7012 28.9517L47.7946 26.1875H48.2006L49.3666 28.9517H48.937L48.6051 28.1151H47.4138L47.1012 28.9517H46.7012ZM47.5235 27.8161H48.4895L48.1917 27.05C48.1013 26.8171 48.0332 26.6259 47.9902 26.4764C47.9532 26.6532 47.9028 26.83 47.8361 27.004L47.5235 27.8147V27.8161Z" fill="white"/>
<path id="Vector_13" d="M50.2363 28.0644L50.5919 28.0342C50.6082 28.1722 50.6482 28.2858 50.709 28.3749C50.7712 28.464 50.866 28.5344 50.9949 28.5905C51.1238 28.6451 51.2705 28.6724 51.432 28.6724C51.5757 28.6724 51.7032 28.6523 51.8128 28.6106C51.9224 28.5689 52.0054 28.5129 52.0587 28.4396C52.1121 28.3677 52.1387 28.2887 52.1387 28.2024C52.1387 28.1162 52.1121 28.04 52.0602 27.9753C52.0084 27.9106 51.9224 27.856 51.8039 27.8129C51.7269 27.7841 51.5579 27.7396 51.2972 27.6777C51.0349 27.6174 50.8527 27.5599 50.7475 27.5053C50.6112 27.4363 50.5104 27.35 50.4438 27.248C50.3771 27.1459 50.3445 27.0309 50.3445 26.9044C50.3445 26.765 50.386 26.6342 50.4675 26.5134C50.549 26.3927 50.669 26.3007 50.8245 26.2374C50.9816 26.1742 51.1549 26.1426 51.3476 26.1426C51.5579 26.1426 51.7446 26.1756 51.9061 26.2418C52.0676 26.3079 52.1921 26.4042 52.278 26.5336C52.364 26.6629 52.4114 26.8067 52.4173 26.9691L52.0558 26.995C52.0365 26.8196 51.9698 26.6888 51.8587 26.5997C51.7461 26.5106 51.5817 26.466 51.3624 26.466C51.1431 26.466 50.9683 26.5062 50.8645 26.5882C50.7608 26.6687 50.7075 26.7664 50.7075 26.8814C50.7075 26.9806 50.7445 27.0625 50.8186 27.1272C50.8912 27.1919 51.0809 27.2566 51.3876 27.3241C51.6943 27.3917 51.9047 27.4506 52.0187 27.5009C52.1847 27.5757 52.3077 27.6691 52.3862 27.7827C52.4647 27.8962 52.5047 28.027 52.5047 28.1765C52.5047 28.326 52.4617 28.4626 52.3743 28.5919C52.2869 28.7213 52.1625 28.8234 52.001 28.8952C51.838 28.9671 51.6557 29.0031 51.4513 29.0031C51.1935 29.0031 50.9771 28.9671 50.8038 28.8938C50.629 28.8205 50.4927 28.7113 50.3934 28.5646C50.2941 28.418 50.2423 28.2527 50.2363 28.0673V28.0644Z" fill="white"/>
<path id="Vector_14" d="M56.8502 27.8684V27.5435H58.0577V28.567C57.8725 28.7107 57.6814 28.8185 57.4843 28.8904C57.2873 28.9623 57.0858 28.9982 56.8783 28.9982C56.5983 28.9982 56.3449 28.9407 56.1153 28.8243C55.8871 28.7079 55.7138 28.5397 55.5967 28.3198C55.4797 28.0998 55.4219 27.854 55.4219 27.5824C55.4219 27.3107 55.4797 27.062 55.5952 26.8291C55.7108 26.5963 55.8782 26.4224 56.096 26.3102C56.3138 26.1967 56.5642 26.1406 56.8487 26.1406C57.0546 26.1406 57.2413 26.1737 57.4073 26.2384C57.5732 26.3031 57.7036 26.3936 57.7984 26.5086C57.8932 26.6236 57.9644 26.7745 58.0147 26.9614L57.6754 27.052C57.6325 26.9111 57.5791 26.8004 57.5154 26.7199C57.4517 26.6394 57.3613 26.5747 57.2428 26.5273C57.1258 26.4784 56.9939 26.454 56.8502 26.454C56.6783 26.454 56.5287 26.4799 56.4027 26.5302C56.2768 26.5805 56.176 26.648 56.099 26.7314C56.0219 26.8148 55.9627 26.9053 55.9197 27.0045C55.8471 27.1756 55.8115 27.361 55.8115 27.5608C55.8115 27.8066 55.8545 28.0136 55.9434 28.1789C56.0308 28.3442 56.1582 28.4678 56.3257 28.5483C56.4931 28.6288 56.6709 28.6691 56.8576 28.6691C57.0206 28.6691 57.1806 28.6389 57.3362 28.5771C57.4917 28.5167 57.6088 28.4506 57.6903 28.3816V27.867H56.8531L56.8502 27.8684Z" fill="white"/>
<path id="Vector_15" d="M59.2949 28.9517V26.1875H59.6713V28.6254H61.0744V28.9517H59.2949Z" fill="white"/>
<path id="Vector_16" d="M62.1055 27.6063C62.1055 27.1477 62.2329 26.7884 62.4862 26.5282C62.7396 26.268 63.0685 26.1387 63.4701 26.1387C63.7323 26.1387 63.9708 26.199 64.1812 26.3212C64.3916 26.4434 64.5531 26.613 64.6643 26.8315C64.7754 27.05 64.8302 27.2972 64.8302 27.5732C64.8302 27.8492 64.7724 28.1036 64.6554 28.325C64.5383 28.5464 64.3739 28.7131 64.1605 28.8281C63.9471 28.9416 63.716 28.9991 63.4686 28.9991C63.2004 28.9991 62.9604 28.9359 62.75 28.8108C62.5396 28.6843 62.3796 28.5133 62.2699 28.2962C62.1603 28.0792 62.1069 27.8492 62.1069 27.6063H62.1055ZM62.4937 27.612C62.4937 27.9455 62.5855 28.2071 62.7707 28.3997C62.9559 28.5909 63.1871 28.6872 63.4656 28.6872C63.7442 28.6872 63.9827 28.5909 64.1664 28.3969C64.3501 28.2028 64.442 27.9283 64.442 27.5732C64.442 27.3475 64.4035 27.1521 64.325 26.9839C64.2464 26.8157 64.1323 26.6863 63.9812 26.5943C63.8301 26.5023 63.6612 26.4563 63.473 26.4563C63.2063 26.4563 62.9767 26.5455 62.7841 26.7237C62.5914 26.9019 62.4951 27.1981 62.4951 27.6149L62.4937 27.612Z" fill="white"/>
<path id="Vector_17" d="M65.9961 28.9517V26.1875H67.0644C67.2822 26.1875 67.457 26.2148 67.5889 26.2709C67.7207 26.3269 67.823 26.4132 67.897 26.5296C67.9711 26.646 68.0082 26.7682 68.0082 26.8947C68.0082 27.0126 67.9756 27.1247 67.9089 27.2282C67.8422 27.3331 67.7429 27.4165 67.6096 27.4812C67.7815 27.5301 67.9148 27.6134 68.0067 27.7313C68.0985 27.8492 68.146 27.9886 68.146 28.1496C68.146 28.2789 68.1178 28.3997 68.0615 28.5104C68.0052 28.6211 67.9356 28.7073 67.8526 28.7677C67.7696 28.828 67.6659 28.874 67.5414 28.9042C67.417 28.9344 67.2629 28.9502 67.0821 28.9502H65.9961V28.9517ZM66.3724 27.3489H66.9888C67.1562 27.3489 67.2762 27.3389 67.3488 27.3173C67.4451 27.29 67.5163 27.244 67.5651 27.1793C67.614 27.1146 67.6378 27.0356 67.6378 26.9378C67.6378 26.8458 67.6155 26.7653 67.5696 26.6949C67.5237 26.6245 67.46 26.577 67.3755 26.5512C67.291 26.5253 67.1473 26.5124 66.9429 26.5124H66.3739V27.3475L66.3724 27.3489ZM66.3724 28.6254H67.0821C67.2036 28.6254 67.2896 28.6211 67.3385 28.6124C67.4259 28.5981 67.4985 28.5722 67.5563 28.5377C67.614 28.5032 67.6629 28.4514 67.7 28.3839C67.737 28.3163 67.7563 28.2387 67.7563 28.151C67.7563 28.0475 67.7296 27.9584 67.6748 27.8822C67.62 27.806 67.5444 27.7529 67.4481 27.7227C67.3518 27.6925 67.2125 27.6767 67.0318 27.6767H66.3724V28.6268V28.6254Z" fill="white"/>
<path id="Vector_18" d="M69.0508 28.9517L70.1442 26.1875H70.5502L71.7162 28.9517H71.2866L70.9547 28.1151H69.7634L69.4508 28.9517H69.0508ZM69.8731 27.8161H70.8391L70.5413 27.05C70.4509 26.8171 70.3828 26.6259 70.3398 26.4764C70.3028 26.6532 70.2524 26.83 70.1857 27.004L69.8731 27.8147V27.8161Z" fill="white"/>
<path id="Vector_19" d="M72.6973 28.9517V26.1875H73.0736V28.6254H74.4767V28.9517H72.6973Z" fill="white"/>
<path id="Vector_20" d="M75.6323 28.9517V26.1875H77.6918V26.5138H76.0087V27.3604H77.5851V27.6853H76.0087V28.6254H77.757V28.9517H75.6309H75.6323Z" fill="white"/>
<path id="Vector_21" d="M78.8477 28.0644L79.2033 28.0342C79.2196 28.1722 79.2596 28.2858 79.3203 28.3749C79.3825 28.464 79.4774 28.5344 79.6063 28.5905C79.7352 28.6451 79.8818 28.6724 80.0433 28.6724C80.1871 28.6724 80.3145 28.6523 80.4241 28.6106C80.5338 28.5689 80.6167 28.5129 80.6701 28.4396C80.7234 28.3677 80.7501 28.2887 80.7501 28.2024C80.7501 28.1162 80.7234 28.04 80.6716 27.9753C80.6197 27.9106 80.5338 27.856 80.4152 27.8129C80.3382 27.7841 80.1693 27.7396 79.9085 27.6777C79.6463 27.6174 79.464 27.5599 79.3588 27.5053C79.2225 27.4363 79.1218 27.35 79.0551 27.248C78.9884 27.1459 78.9558 27.0309 78.9558 26.9044C78.9558 26.765 78.9973 26.6342 79.0788 26.5134C79.1603 26.3927 79.2803 26.3007 79.4359 26.2374C79.5929 26.1742 79.7663 26.1426 79.9589 26.1426C80.1693 26.1426 80.356 26.1756 80.5175 26.2418C80.679 26.3079 80.8034 26.4042 80.8894 26.5336C80.9753 26.6629 81.0227 26.8067 81.0286 26.9691L80.6671 26.995C80.6478 26.8196 80.5812 26.6888 80.4701 26.5997C80.3574 26.5106 80.193 26.466 79.9737 26.466C79.7544 26.466 79.5796 26.5062 79.4759 26.5882C79.3722 26.6687 79.3188 26.7664 79.3188 26.8814C79.3188 26.9806 79.3559 27.0625 79.4299 27.1272C79.5025 27.1919 79.6922 27.2566 79.9989 27.3241C80.3056 27.3917 80.516 27.4506 80.6301 27.5009C80.796 27.5757 80.919 27.6691 80.9975 27.7827C81.076 27.8962 81.116 28.027 81.116 28.1765C81.116 28.326 81.0731 28.4626 80.9857 28.5919C80.8982 28.7213 80.7738 28.8234 80.6123 28.8952C80.4493 28.9671 80.2671 29.0031 80.0626 29.0031C79.8048 29.0031 79.5885 28.9671 79.4151 28.8938C79.2403 28.8205 79.104 28.7113 79.0047 28.5646C78.9054 28.418 78.8536 28.2527 78.8477 28.0673V28.0644Z" fill="white"/>
<path id="Vector_22" d="M86.16 27.9834L86.5364 28.0754C86.4578 28.3758 86.3156 28.6044 86.1096 28.7625C85.9037 28.9206 85.6533 28.9997 85.357 28.9997C85.0606 28.9997 84.7999 28.9393 84.6073 28.8171C84.4147 28.6949 84.268 28.5196 84.1687 28.2896C84.068 28.0596 84.0176 27.8123 84.0176 27.5493C84.0176 27.2618 84.0739 27.0103 84.188 26.7961C84.3006 26.5819 84.4621 26.4195 84.6725 26.3074C84.8814 26.1967 85.1125 26.1406 85.3629 26.1406C85.6474 26.1406 85.8874 26.2111 86.0815 26.3519C86.2756 26.4928 86.4119 26.6912 86.4875 26.9456L86.1171 27.0304C86.0504 26.8292 85.9556 26.6825 85.8296 26.5905C85.7037 26.4985 85.5452 26.4525 85.3555 26.4525C85.1362 26.4525 84.954 26.5029 84.8058 26.6049C84.6591 26.707 84.5554 26.8435 84.4961 27.0146C84.4369 27.1856 84.4072 27.3624 84.4072 27.545C84.4072 27.7807 84.4428 27.9848 84.5124 28.1602C84.5821 28.3356 84.6932 28.4664 84.8414 28.5541C84.9895 28.6403 85.151 28.6834 85.3259 28.6834C85.5363 28.6834 85.7155 28.6245 85.8622 28.5066C86.0089 28.3888 86.1082 28.2134 86.16 27.9805V27.9834Z" fill="white"/>
<path id="Vector_23" d="M87.584 27.6063C87.584 27.1477 87.7114 26.7884 87.9648 26.5282C88.2181 26.268 88.5471 26.1387 88.9486 26.1387C89.2108 26.1387 89.4494 26.199 89.6598 26.3212C89.8702 26.4434 90.0317 26.613 90.1428 26.8315C90.2539 27.05 90.3087 27.2972 90.3087 27.5732C90.3087 27.8492 90.2509 28.1036 90.1339 28.325C90.0168 28.5464 89.8524 28.7131 89.639 28.8281C89.4257 28.9416 89.1945 28.9991 88.9471 28.9991C88.6789 28.9991 88.4389 28.9359 88.2285 28.8108C88.0181 28.6843 87.8581 28.5133 87.7484 28.2962C87.6388 28.0792 87.5855 27.8492 87.5855 27.6063H87.584ZM87.9722 27.612C87.9722 27.9455 88.064 28.2071 88.2492 28.3997C88.4344 28.5909 88.6656 28.6872 88.9441 28.6872C89.2227 28.6872 89.4612 28.5909 89.6449 28.3969C89.8287 28.2028 89.9205 27.9283 89.9205 27.5732C89.9205 27.3475 89.882 27.1521 89.8035 26.9839C89.7249 26.8157 89.6109 26.6863 89.4597 26.5943C89.3086 26.5023 89.1397 26.4563 88.9515 26.4563C88.6848 26.4563 88.4552 26.5455 88.2626 26.7237C88.07 26.9019 87.9737 27.1981 87.9737 27.6149L87.9722 27.612Z" fill="white"/>
<path id="Vector_24" d="M91.4863 28.9517V26.1875H91.873L93.3695 28.358V26.1875H93.731V28.9517H93.3443L91.8478 26.7797V28.9517H91.4863Z" fill="white"/>
<path id="Vector_25" d="M94.9453 27.6063C94.9453 27.1477 95.0727 26.7884 95.3261 26.5282C95.5795 26.268 95.9084 26.1387 96.3099 26.1387C96.5722 26.1387 96.8107 26.199 97.0211 26.3212C97.2315 26.4434 97.393 26.613 97.5041 26.8315C97.6152 27.05 97.67 27.2972 97.67 27.5732C97.67 27.8492 97.6123 28.1036 97.4952 28.325C97.3782 28.5464 97.2137 28.7131 97.0003 28.8281C96.787 28.9416 96.5559 28.9991 96.3084 28.9991C96.0402 28.9991 95.8002 28.9359 95.5898 28.8108C95.3794 28.6843 95.2194 28.5133 95.1098 28.2962C95.0001 28.0792 94.9468 27.8492 94.9468 27.6063H94.9453ZM95.3335 27.612C95.3335 27.9455 95.4254 28.2071 95.6106 28.3997C95.7958 28.5909 96.0269 28.6872 96.3055 28.6872C96.584 28.6872 96.8225 28.5909 97.0063 28.3969C97.19 28.2028 97.2819 27.9283 97.2819 27.5732C97.2819 27.3475 97.2433 27.1521 97.1648 26.9839C97.0863 26.8157 96.9722 26.6863 96.8211 26.5943C96.6699 26.5023 96.501 26.4563 96.3129 26.4563C96.0462 26.4563 95.8165 26.5455 95.6239 26.7237C95.4313 26.9019 95.335 27.1981 95.335 27.6149L95.3335 27.612Z" fill="white"/>
<path id="Vector_26" d="M100.887 27.9834L101.263 28.0754C101.184 28.3758 101.042 28.6044 100.836 28.7625C100.63 28.9206 100.38 28.9997 100.084 28.9997C99.7872 28.9997 99.5264 28.9393 99.3338 28.8171C99.1412 28.6949 98.9945 28.5196 98.8953 28.2896C98.7945 28.0596 98.7441 27.8123 98.7441 27.5493C98.7441 27.2618 98.8004 27.0103 98.9145 26.7961C99.0271 26.5819 99.1886 26.4195 99.399 26.3074C99.6079 26.1967 99.8391 26.1406 100.089 26.1406C100.374 26.1406 100.614 26.2111 100.808 26.3519C101.002 26.4928 101.138 26.6912 101.214 26.9456L100.844 27.0304C100.777 26.8292 100.682 26.6825 100.556 26.5905C100.43 26.4985 100.272 26.4525 100.082 26.4525C99.8628 26.4525 99.6805 26.5029 99.5324 26.6049C99.3857 26.707 99.282 26.8435 99.2227 27.0146C99.1634 27.1856 99.1338 27.3624 99.1338 27.545C99.1338 27.7807 99.1694 27.9848 99.239 28.1602C99.3086 28.3356 99.4198 28.4664 99.5679 28.5541C99.7161 28.6403 99.8776 28.6834 100.052 28.6834C100.263 28.6834 100.442 28.6245 100.589 28.5066C100.735 28.3888 100.835 28.2134 100.887 27.9805V27.9834Z" fill="white"/>
<path id="Vector_27" d="M102.488 28.9517V26.1875H102.865V28.9517H102.488Z" fill="white"/>
<path id="Vector_28" d="M104.215 28.9517V26.1875H104.782L105.456 28.1438C105.519 28.3264 105.565 28.4629 105.593 28.5535C105.625 28.4529 105.676 28.3048 105.744 28.1108L106.425 26.1875H106.932V28.9517H106.569V26.6389L105.741 28.9517H105.402L104.578 26.5986V28.9517H104.215Z" fill="white"/>
<path id="Vector_29" d="M108.301 28.9517V26.1875H108.677V28.9517H108.301Z" fill="white"/>
<path id="Vector_30" d="M110.048 28.9517V26.1875H112.108V26.5138H110.425V27.3604H112.001V27.6853H110.425V28.6254H112.173V28.9517H110.047H110.048Z" fill="white"/>
<path id="Vector_31" d="M113.387 28.9517V26.1875H113.773L115.27 28.358V26.1875H115.631V28.9517H115.245L113.748 26.7797V28.9517H113.387Z" fill="white"/>
<path id="Vector_32" d="M117.686 28.9517V26.5138H116.748V26.1875H119.006V26.5138H118.064V28.9517H117.687H117.686Z" fill="white"/>
<path id="Vector_33" d="M119.902 27.6063C119.902 27.1477 120.03 26.7884 120.283 26.5282C120.536 26.268 120.865 26.1387 121.267 26.1387C121.529 26.1387 121.766 26.199 121.978 26.3212C122.189 26.4434 122.35 26.613 122.461 26.8315C122.572 27.05 122.627 27.2972 122.627 27.5732C122.627 27.8492 122.569 28.1036 122.452 28.325C122.335 28.5464 122.171 28.7131 121.957 28.8281C121.744 28.9416 121.513 28.9991 121.265 28.9991C120.997 28.9991 120.757 28.9359 120.547 28.8108C120.336 28.6843 120.176 28.5133 120.067 28.2962C119.957 28.0792 119.904 27.8492 119.904 27.6063H119.902ZM120.291 27.612C120.291 27.9455 120.382 28.2071 120.568 28.3997C120.753 28.5909 120.984 28.6872 121.262 28.6872C121.541 28.6872 121.78 28.5909 121.963 28.3969C122.147 28.2028 122.239 27.9283 122.239 27.5732C122.239 27.3475 122.2 27.1521 122.122 26.9839C122.043 26.8157 121.929 26.6863 121.778 26.5943C121.627 26.5023 121.458 26.4563 121.27 26.4563C121.003 26.4563 120.774 26.5455 120.581 26.7237C120.388 26.9019 120.292 27.1981 120.292 27.6149L120.291 27.612Z" fill="white"/>
<path id="Vector_34" d="M125.598 28.9517V26.1875H125.974V28.6254H127.377V28.9517H125.598Z" fill="white"/>
<path id="Vector_35" d="M128.408 27.6063C128.408 27.1477 128.536 26.7884 128.789 26.5282C129.042 26.268 129.371 26.1387 129.773 26.1387C130.035 26.1387 130.274 26.199 130.484 26.3212C130.694 26.4434 130.856 26.613 130.967 26.8315C131.078 27.05 131.133 27.2972 131.133 27.5732C131.133 27.8492 131.075 28.1036 130.958 28.325C130.841 28.5464 130.677 28.7131 130.463 28.8281C130.25 28.9416 130.019 28.9991 129.771 28.9991C129.503 28.9991 129.263 28.9359 129.053 28.8108C128.842 28.6843 128.682 28.5133 128.573 28.2962C128.463 28.0792 128.41 27.8492 128.41 27.6063H128.408ZM128.796 27.612C128.796 27.9455 128.888 28.2071 129.073 28.3997C129.259 28.5909 129.49 28.6872 129.768 28.6872C130.047 28.6872 130.285 28.5909 130.469 28.3969C130.653 28.2028 130.745 27.9283 130.745 27.5732C130.745 27.3475 130.706 27.1521 130.628 26.9839C130.549 26.8157 130.435 26.6863 130.284 26.5943C130.133 26.5023 129.964 26.4563 129.776 26.4563C129.509 26.4563 129.279 26.5455 129.087 26.7237C128.894 26.9019 128.798 27.1981 128.798 27.6149L128.796 27.612Z" fill="white"/>
<path id="Vector_36" d="M134.346 27.9834L134.722 28.0754C134.643 28.3758 134.501 28.6044 134.295 28.7625C134.089 28.9206 133.839 28.9997 133.543 28.9997C133.246 28.9997 132.985 28.9393 132.793 28.8171C132.6 28.6949 132.454 28.5196 132.354 28.2896C132.253 28.0596 132.203 27.8123 132.203 27.5493C132.203 27.2618 132.259 27.0103 132.374 26.7961C132.486 26.5819 132.648 26.4195 132.858 26.3074C133.067 26.1967 133.298 26.1406 133.548 26.1406C133.833 26.1406 134.073 26.2111 134.267 26.3519C134.461 26.4928 134.597 26.6912 134.673 26.9456L134.303 27.0304C134.236 26.8292 134.141 26.6825 134.015 26.5905C133.889 26.4985 133.731 26.4525 133.541 26.4525C133.322 26.4525 133.14 26.5029 132.991 26.6049C132.845 26.707 132.741 26.8435 132.682 27.0146C132.622 27.1856 132.593 27.3624 132.593 27.545C132.593 27.7807 132.628 27.9848 132.698 28.1602C132.768 28.3356 132.879 28.4664 133.027 28.5541C133.175 28.6403 133.337 28.6834 133.511 28.6834C133.722 28.6834 133.901 28.6245 134.048 28.5066C134.194 28.3888 134.294 28.2134 134.346 27.9805V27.9834Z" fill="white"/>
<path id="Vector_37" d="M135.57 28.9517L136.664 26.1875H137.07L138.236 28.9517H137.806L137.474 28.1151H136.283L135.97 28.9517H135.57ZM136.393 27.8161H137.359L137.061 27.05C136.97 26.8171 136.902 26.6259 136.859 26.4764C136.822 26.6532 136.772 26.83 136.705 27.004L136.393 27.8147V27.8161Z" fill="white"/>
<path id="Vector_38" d="M139.221 28.9517V26.1875H139.597V28.6254H141V28.9517H139.221Z" fill="white"/>
</g>
<defs>
<clipPath id="clip0_3604_7235">
<rect width="141" height="29" fill="white"/>
</clipPath>
</defs>
</svg>
